<?xml version="1.0" encoding="UTF-8" standalone="no"?>
<!-- Created with Inkscape (http://www.inkscape.org/) -->

<svg
   version="1.1"
   id="svg1"
   width="1254.4646"
   height="487.23495"
   viewBox="0 0 1254.4647 487.23496"
   sodipodi:docname="LogoIngOscuro.svg"
   inkscape:version="1.4 (86a8ad7, 2024-10-11)"
   xmlns:inkscape="http://www.inkscape.org/namespaces/inkscape"
   xmlns:sodipodi="http://sodipodi.sourceforge.net/DTD/sodipodi-0.dtd"
   xmlns="http://www.w3.org/2000/svg"
   xmlns:svg="http://www.w3.org/2000/svg">
  <sodipodi:namedview
     id="namedview1"
     pagecolor="#505050"
     bordercolor="#eeeeee"
     borderopacity="1"
     inkscape:showpageshadow="0"
     inkscape:pageopacity="0"
     inkscape:pagecheckerboard="0"
     inkscape:deskcolor="#505050"
     inkscape:zoom="0.66522403"
     inkscape:cx="275.84692"
     inkscape:cy="224.73632"
     inkscape:window-width="1920"
     inkscape:window-height="991"
     inkscape:window-x="-9"
     inkscape:window-y="-9"
     inkscape:window-maximized="1"
     inkscape:current-layer="g20667" />
  <defs
     id="defs1" />
  <g
     id="g1"
     transform="translate(-147.04615,-207.71587)">
    <g
       id="g20667"
       transform="translate(-46.179776,-1.876552)">
      <path
         id="path1"
         style="fill:#f9f9f9;stroke-width:0.994405;stroke-linecap:round;stroke-linejoin:bevel;paint-order:markers stroke fill"
         d="m 405.54604,210.39242 c -10.49191,0.27568 -21.08992,1.69541 -31.68163,4.24414 -2.20766,0.6951 -4.41178,1.43871 -6.61133,2.23046 -0.28189,0.63586 -3.05208,2.15401 -8.31251,4.60157 -44.14521,20.53976 -95.40662,82.88761 -114.12695,138.80859 -8.15733,24.36742 -23.4157,51.22748 -33.875,59.63281 -3.08075,2.47576 -7.41895,6.90837 -9.63867,9.84962 -2.15947,2.86139 -3.23438,4.06624 -3.56641,3.76562 -1.13084,6.6354 -3.71271,26.54617 -2.37741,19.99759 2.79525,-13.70845 6.34436,-21.55423 14.8657,-29.74954 14.56916,-14.01179 26.12897,-33.36083 35.84765,-60 33.31015,-91.30404 96.00511,-146.43412 159.47656,-153.38086 z m 7.96901,3.33833 c -65.19103,1.76706 -126.48702,58.91089 -163.22682,154.04252 -9.73336,25.20295 -15.42639,35.31369 -27.71679,49.2207 -23.34606,26.41685 -24.03654,28.18989 -24.71095,63.44728 -3.6568,191.17194 151.51844,277.01625 265.28321,146.7578 113.73411,-130.22339 90.58259,-369.3138 -39.3789,-406.67187 -10.92467,-3.14036 -8.48079,-3.94797 6.13671,-2.08008 47.69751,6.09498 86.86384,34.65467 111.53516,81.33007 12.88385,24.37483 5.44741,33.46661 1.59962,49.53126 -0.45119,1.88377 4.06818,0.90407 4.06818,0.90407 1.42066,-2.85637 0.50225,-0.25059 3.30097,-5.37283 C 565.1429,317.867 527.40839,258.25572 480.33122,232.0174 459.00182,220.12952 443.51179,213.06283 421.77884,213.54675 Z M 194.82339,455.62483 c -1.79515,14.80814 -1.30238,29.57906 -0.98718,44.12696 0.93827,26.03968 4.04819,51.00528 11.62975,73.89258 -8.01869,-26.14612 -12.34002,-55.35581 -12.23828,-86.53712 0.0437,-13.37895 0.49761,-23.38537 1.59571,-31.48242 z m 11.32031,120.12501 c 1.44822,4.60564 3.02329,9.12371 4.72266,13.54687 -1.68885,-4.41383 -3.26241,-8.93133 -4.72266,-13.54687 z"
         sodipodi:nodetypes="cccsssscsssccsssssssssssscccsccccc" />
      <path
         style="fill:#000000"
         d="m 389.19258,589.52134 c -0.38779,-0.38944 -4.88779,-1.37156 -10,-2.18249 -27.80002,-4.40981 -57.40326,-19.1577 -74.08454,-36.90781 -11.68374,-12.43237 -31.7948,-44.42984 -27.92505,-44.42984 0.6609,0 1.58393,1.2045 2.05118,2.67667 16.03586,50.52453 120.34976,90.2141 182.60598,69.4783 5.02757,-1.67454 8.6976,-2.22283 10,-1.49395 2.16436,1.21127 2.44114,1.06254 -11.27583,6.05922 -11.98898,4.36722 -68.43866,9.74543 -71.37174,6.7999 z m 12.32089,-24.95118 c -34.88513,-3.37042 -60.74215,-15.07496 -83.52107,-37.80696 -11.02832,-11.0056 -23.39686,-27.0788 -23.41526,-30.42867 -0.0188,-3.42242 0.97501,-2.86905 3.45289,1.92265 7.4998,14.503 39.43674,39.77124 62.31276,49.30133 21.75071,9.06129 78.20529,14.73806 98.6376,9.91847 16.90747,-3.98815 17.66685,-1.36104 0.94595,3.27256 -8.10982,2.24734 -37.96846,5.55895 -45.36202,5.03108 -1.1,-0.0785 -6.97288,-0.62324 -13.05085,-1.21046 z M 363.89766,438.91648 c -14.33888,-4.54487 -25.36379,-26.97751 -22.43561,-45.65028 5.43571,-34.66311 42.62835,-46.74484 59.92747,-19.46695 2.11281,3.33155 3.84147,6.65736 3.84147,7.39069 0,0.73334 -1.7369,-1.40547 -3.85977,-4.75289 -18.12738,-28.58391 -55.00003,-15.33218 -58.39141,20.98541 -1.26824,13.58128 6.64676,31.79539 15.98961,36.79554 2.81733,1.50779 2.82565,1.4812 0.52462,-1.67569 -14.1013,-19.3461 -5.5777,-49.90671 15.57085,-55.82794 10.76527,-3.01409 22.83381,3.36737 28.91024,15.28682 2.71889,5.33334 2.71889,5.33334 2.06256,-2 -0.59803,-6.68206 -0.53237,-6.91888 0.73932,-2.66666 8.81824,29.48606 -16.50027,59.94309 -42.87935,51.58195 z m -2,-35.58195 c 0,-1.07992 -1.05,-2.16569 -2.33334,-2.41284 -1.63713,-0.31528 -2.33333,0.40464 -2.33333,2.41284 0,2.0082 0.6962,2.72812 2.33333,2.41284 1.28334,-0.24715 2.33334,-1.33293 2.33334,-2.41284 z m 12.89501,-6.20665 c 2.98458,-2.70101 3.09514,-5.59559 0.36271,-9.49668 -5.42694,-7.74804 -15.74591,0.65041 -11.21081,9.12432 1.71227,3.19941 7.50454,3.39823 10.8481,0.37236 z m 81.05969,42.36665 c -21.51278,-4.47384 -33.98185,-37.61151 -22.40634,-59.54686 19.33022,-36.63041 58.99998,-24.14367 62.09008,19.54392 1.72347,24.36617 -18.21714,44.46717 -39.68374,40.00294 z m -11.61471,-13.39826 c -17.24434,-34.84447 26.56439,-69.52506 46.50943,-36.81857 3.97303,6.51509 3.28804,-0.48453 -0.97759,-9.98962 -7.03079,-15.66669 -22.30092,-22.34226 -36.84567,-16.10765 -22.62089,9.69644 -28.56142,45.90243 -10.76376,65.60232 6.06921,6.71788 6.47321,6.19547 2.07759,-2.68648 z m 26.99333,-22.76174 c 0,-1.07992 -1.05,-2.16569 -2.33333,-2.41284 -1.63713,-0.31528 -2.33333,0.40464 -2.33333,2.41284 0,2.0082 0.6962,2.72812 2.33333,2.41284 1.28333,-0.24715 2.33333,-1.33293 2.33333,-2.41284 z m 12.89502,-6.20665 c 3.03231,-2.7442 3.12659,-6.82284 0.23167,-10.0217 -6.10727,-6.74846 -15.48483,1.41842 -11.07977,9.64934 1.71227,3.19941 7.50454,3.39823 10.8481,0.37236 z"
         id="path20795" />
      <path
         style="fill:#f96819;fill-opacity:1"
         d="M 328.46153,695.74274 C 248.74212,684.57041 192.86463,598.35636 193.2277,487.08881 c 0.12527,-38.38997 3.27897,-50.14368 16.9933,-63.33333 14.56916,-14.01178 26.12995,-33.36124 35.84863,-60.00041 52.99622,-145.26411 180.37297,-199.05282 266.91853,-112.71447 36.81764,36.72948 51.81364,78.43177 35.2578,98.04821 -2.05626,2.4364 -1.71786,1.21988 1.25764,-4.52102 14.14369,-27.28872 -22.18526,-86.33445 -69.26243,-112.57277 -85.31759,-47.55151 -180.96713,8.91828 -229.95352,135.76046 -9.73336,25.20295 -15.42716,35.31404 -27.71756,49.22105 -23.34605,26.41684 -24.03596,28.18824 -24.71037,63.44562 -3.6568,191.17195 151.51922,277.01777 265.28399,146.75929 113.73411,-130.22339 90.58231,-369.31403 -39.37918,-406.6721 -10.92467,-3.14035 -8.57071,-3.95148 6.04679,-2.08359 47.69751,6.09498 86.86353,34.65432 111.53484,81.32973 12.88385,24.37483 13.3693,31.47837 3.31873,48.56289 -7.19495,12.23038 -7.89554,18.30259 -4.69988,40.73546 21.80345,153.05615 -95.37123,322.96434 -211.50348,306.68891 z M 198.14406,429.08881 c 14.01311,-95.57604 83.29726,-190.31897 152.8915,-209.07217 18.9101,-5.09561 21.0878,-4.70075 7.90434,1.43322 -44.14521,20.53976 -95.40692,82.88724 -114.12725,138.80822 -8.15733,24.36742 -23.4159,51.22861 -33.8752,59.63394 -3.08075,2.47575 -7.41751,6.90784 -9.63723,9.84908 -4.03586,5.34771 -4.03586,5.34771 -3.15616,-0.65229 z"
         id="path20817" />
    </g>
    <text
       xml:space="preserve"
       style="font-size:212.892px;line-height:0px;font-family:'Gill Sans MT';-inkscape-font-specification:'Gill Sans MT, Normal';text-align:center;writing-mode:lr-tb;direction:ltr;text-anchor:middle;fill:#f9f9f9;fill-opacity:1;stroke:none;stroke-width:2.28859;stroke-linecap:round;stroke-linejoin:bevel;stroke-dasharray:none;paint-order:markers stroke fill"
       x="985.65338"
       y="500.71014"
       id="text20917"><tspan
         id="tspan20917"
         x="1015.2275"
         y="500.71014"
         style="fill:#f9f9f9;stroke-width:2.28859;stroke:none">Ingeniería </tspan></text>
  </g>
</svg>
